<svg version="1.0" xmlns="http://www.w3.org/2000/svg"
 width="500.000000pt" height="500.000000pt" viewBox="0 0 500.000000 500.000000"
 preserveAspectRatio="xMidYMid meet">

<g transform="translate(0.000000,500.000000) scale(0.100000,-0.100000)"
fill="#000000" stroke="none">
<path d="M2533 3115 c-30 -21 -129 -174 -174 -270 -21 -44 -63 -152 -93 -239
-54 -157 -56 -160 -118 -223 -56 -56 -88 -77 -88 -55 0 4 14 49 31 101 16 51
28 100 25 107 -3 8 -19 14 -35 14 -32 0 -34 -2 -126 -127 -47 -64 -108 -123
-126 -123 -26 0 35 179 81 237 28 36 26 71 -4 79 -13 3 -33 1 -44 -5 -20 -10
-66 -85 -108 -171 -11 -25 -51 -83 -88 -130 -37 -47 -71 -90 -74 -95 -10 -16
-63 -55 -74 -55 -15 0 -2 42 48 160 24 58 44 113 44 122 0 18 -12 23 -78 33
-50 8 -61 25 -38 60 26 39 21 55 -17 55 -59 0 -92 -62 -63 -119 13 -24 25 -32
56 -37 22 -4 40 -8 40 -10 0 -2 -18 -44 -39 -93 -51 -117 -56 -141 -37 -185
20 -48 50 -59 96 -36 34 18 118 101 172 170 24 31 27 32 28 14 0 -12 8 -32 18
-44 15 -18 24 -21 49 -16 33 8 97 63 151 131 l31 40 -6 -52 c-6 -56 4 -79 42
-93 32 -12 69 7 126 65 29 30 55 53 57 50 2 -2 -4 -38 -13 -80 -41 -183 8
-306 111 -281 44 11 160 138 229 250 33 54 61 93 63 88 2 -6 -4 -50 -12 -99
-27 -152 -17 -193 47 -193 21 0 28 6 33 28 39 175 98 307 249 552 100 160 247
340 279 340 23 0 20 -28 -14 -156 -63 -235 -194 -534 -267 -609 -52 -54 -88
-45 -146 35 l-18 25 6 -30 c16 -75 93 -131 163 -119 56 9 155 116 209 224 61
121 107 232 137 329 22 68 27 105 28 200 1 123 -8 163 -41 181 -31 16 -67 -7
-142 -92 -120 -135 -223 -282 -320 -456 -32 -58 -59 -104 -59 -101 0 39 175
485 204 519 7 8 16 23 19 33 14 38 -36 87 -70 68 -27 -14 -78 -105 -134 -237
-51 -121 -63 -153 -93 -256 -9 -32 -22 -58 -29 -58 -7 0 -25 -23 -40 -51 -81
-147 -214 -326 -260 -350 -17 -9 -23 -8 -34 7 -20 28 -14 153 12 254 25 98 33
115 89 190 133 176 252 389 263 469 13 98 -49 162 -114 116z m67 -71 c0 -31
-50 -159 -92 -234 -62 -111 -130 -221 -134 -217 -9 8 104 315 145 395 22 41
57 82 71 82 6 0 10 -12 10 -26z m-160 -104 c-6 -11 -13 -20 -16 -20 -2 0 0 9
6 20 6 11 13 20 16 20 2 0 0 -9 -6 -20z m327 -180 c-22 -49 -42 -88 -45 -86
-4 5 75 176 82 176 2 0 -14 -40 -37 -90z m-56 -127 c-12 -20 -14 -14 -5 12 4
9 9 14 11 11 3 -2 0 -13 -6 -23z m-14 -45 c-3 -8 -6 -5 -6 6 -1 11 2 17 5 13
3 -3 4 -12 1 -19z m-5 -80 c-7 -7 -12 -8 -12 -2 0 14 12 26 19 19 2 -3 -1 -11
-7 -17z m411 -53 c-3 -9 -8 -14 -10 -11 -3 3 -2 9 2 15 9 16 15 13 8 -4z"/>
<path d="M1135 3036 c-66 -29 -146 -138 -240 -323 -96 -190 -127 -338 -89
-420 23 -47 71 -93 97 -93 37 1 62 29 167 185 91 135 107 150 84 77 -13 -43
-23 -248 -14 -282 21 -78 93 -120 152 -89 32 17 78 139 52 139 -4 0 -23 -19
-43 -42 -72 -80 -88 -23 -56 195 22 148 64 269 132 378 20 31 12 55 -22 71
-34 15 -34 15 -196 -227 -141 -211 -240 -328 -260 -308 -8 8 -9 30 -4 70 5 32
7 69 6 83 -2 20 0 22 9 10 9 -12 10 -8 5 15 -6 32 31 163 61 214 16 28 16 26
-22 -83 -34 -97 -29 -107 6 -14 68 185 174 342 251 372 42 17 52 12 72 -36 18
-42 35 -47 62 -18 23 25 15 42 -37 81 -70 51 -127 66 -173 45z m22 -743 c-3
-10 -5 -2 -5 17 0 19 2 27 5 18 2 -10 2 -26 0 -35z"/>
<path d="M3405 2641 c-52 -22 -119 -114 -147 -204 -19 -61 -24 -110 -8 -72 11
26 13 1 3 -46 l-7 -34 -6 30 -6 30 -5 -37 c-3 -20 -1 -34 3 -32 4 3 5 -8 2
-25 -8 -39 45 -99 96 -107 47 -8 86 24 185 149 42 54 78 97 80 97 1 0 1 -53
-1 -117 -4 -135 7 -167 54 -161 23 3 30 11 44 55 18 56 38 89 101 165 l40 47
27 -29 c31 -33 38 -35 90 -20 45 12 143 110 138 136 -3 16 -11 12 -53 -27 -80
-74 -155 -103 -155 -60 0 39 20 70 65 101 49 34 57 63 17 68 -28 4 -123 -84
-201 -188 l-56 -75 -10 70 c-6 39 -14 77 -19 86 -4 10 -7 23 -5 30 4 30 -2 39
-24 39 -27 0 -70 -37 -64 -54 8 -20 -133 -196 -187 -233 -56 -38 -62 -40 -76
-14 -9 19 -7 38 15 147 3 14 19 27 43 37 21 8 61 36 89 61 83 75 95 149 29
180 -37 17 -60 19 -91 7z m75 -67 c0 -42 -40 -98 -89 -127 -17 -10 -31 -16
-31 -13 0 13 45 106 67 139 33 48 53 48 53 1z"/>
</g>
</svg>
